<svg width="43" height="40" viewBox="0 0 43 40" fill="none" xmlns="http://www.w3.org/2000/svg">
<rect width="43" height="40" rx="20" fill="#00301B"/>
<path d="M33.7651 13.8164C33.4707 12.7078 32.6032 11.8347 31.5018 11.5384C29.5054 11 21.5 11 21.5 11C21.5 11 13.4947 11 11.4983 11.5384C10.3968 11.8347 9.52937 12.7078 9.23495 13.8164C8.70001 15.8258 8.70001 20.0182 8.70001 20.0182C8.70001 20.0182 8.70001 24.2106 9.23495 26.22C9.52937 27.3286 10.3968 28.1653 11.4983 28.4616C13.4947 29 21.5 29 21.5 29C21.5 29 29.5053 29 31.5018 28.4616C32.6032 28.1653 33.4707 27.3286 33.7651 26.22C34.3 24.2106 34.3 20.0182 34.3 20.0182C34.3 20.0182 34.3 15.8258 33.7651 13.8164ZM18.8818 23.8246V16.2118L25.5727 20.0183L18.8818 23.8246Z" fill="#E6F1EC"/>
</svg>
