<svg width="64" height="64" viewBox="0 0 64 64" fill="none" xmlns="http://www.w3.org/2000/svg">
<rect x="0.5" y="0.5" width="63" height="63" rx="31.5" stroke="black" stroke-opacity="0.12"/>
<path d="M43.7508 43.13C42.9405 43.1318 42.1379 42.9731 41.3892 42.6631C40.6406 42.3532 39.9607 41.898 39.3888 41.324L33.0888 35.024C32.8658 34.8121 32.5699 34.694 32.2623 34.694C31.9547 34.694 31.6588 34.8121 31.4358 35.024L25.1118 41.348C24.5401 41.9223 23.8603 42.3776 23.1116 42.6876C22.3629 42.9976 21.5602 43.1561 20.7498 43.154H19.5078L27.4878 51.134C29.9778 53.624 34.0188 53.624 36.5088 51.134L44.5098 43.13H43.7508ZM20.7498 20.846C22.3998 20.846 23.9478 21.488 25.1118 22.652L31.4358 28.976C31.5445 29.0848 31.6735 29.1712 31.8156 29.2301C31.9577 29.289 32.11 29.3194 32.2638 29.3194C32.4176 29.3194 32.5699 29.289 32.712 29.2301C32.8541 29.1712 32.9831 29.0848 33.0918 28.976L39.3918 22.676C39.9631 22.102 40.6425 21.6469 41.3907 21.337C42.1388 21.027 42.941 20.8683 43.7508 20.87H44.5098L36.5088 12.869C35.3123 11.6733 33.6899 11.0016 31.9983 11.0016C30.3067 11.0016 28.6844 11.6733 27.4878 12.869L19.5078 20.849L20.7498 20.846Z" fill="#232121"/>
<path d="M51.1315 27.488L46.2955 22.652C46.1869 22.6966 46.0708 22.72 45.9535 22.721H43.7545C42.6175 22.721 41.5045 23.183 40.7035 23.987L34.4035 30.287C34.1233 30.5686 33.7902 30.7921 33.4234 30.9446C33.0566 31.0971 32.6632 31.1756 32.266 31.1756C31.8687 31.1756 31.4753 31.0971 31.1085 30.9446C30.7417 30.7921 30.4086 30.5686 30.1285 30.287L23.8045 23.96C22.9931 23.152 21.8955 22.697 20.7505 22.694H18.0505C17.9385 22.6931 17.8277 22.6717 17.7235 22.631L12.8695 27.488C10.3795 29.978 10.3795 34.019 12.8695 36.512L17.7235 41.366C17.8265 41.3245 17.9363 41.3021 18.0475 41.3H20.7505C21.8905 41.3 23.0005 40.841 23.8045 40.037L30.1255 33.71C30.7022 33.1608 31.4681 32.8546 32.2645 32.8546C33.0608 32.8546 33.8267 33.1608 34.4035 33.71L40.7035 40.01C41.5045 40.814 42.6175 41.273 43.7545 41.273H45.9535C46.0735 41.273 46.1905 41.303 46.2955 41.345L51.1315 36.509C53.6215 34.019 53.6215 29.978 51.1315 27.488Z" fill="#232121"/>
</svg>
