<svg width="40" height="40" viewBox="0 0 40 40" fill="none" xmlns="http://www.w3.org/2000/svg">
<rect width="40" height="40" rx="20" fill="#00301B"/>
<path d="M32 20.073C32 13.4037 26.629 8 20 8C13.371 8 8 13.4037 8 20.073C8 26.0988 12.3882 31.0935 18.125 32V23.563H15.0766V20.073H18.125V17.4131C18.125 14.3875 19.9153 12.7163 22.6574 12.7163C23.9706 12.7163 25.3439 12.9519 25.3439 12.9519V15.9215H23.8303C22.34 15.9215 21.875 16.8523 21.875 17.8069V20.073H25.2031L24.6708 23.563H21.875V32C27.6118 31.0935 32 26.0988 32 20.073Z" fill="#E6F1EC"/>
</svg>
