<svg width="37" height="40" viewBox="0 0 37 40" fill="none" xmlns="http://www.w3.org/2000/svg">
<rect width="37" height="40" rx="18.5" fill="#00301B"/>
<path d="M27.5 9.5H9.49531C8.67031 9.5 8 10.1797 8 11.0141V28.9859C8 29.8203 8.67031 30.5 9.49531 30.5H27.5C28.325 30.5 29 29.8203 29 28.9859V11.0141C29 10.1797 28.325 9.5 27.5 9.5ZM14.3469 27.5H11.2344V17.4781H14.3516V27.5H14.3469ZM12.7906 16.1094C11.7922 16.1094 10.9859 15.2984 10.9859 14.3047C10.9859 13.3109 11.7922 12.5 12.7906 12.5C13.7844 12.5 14.5953 13.3109 14.5953 14.3047C14.5953 15.3031 13.7891 16.1094 12.7906 16.1094ZM26.0141 27.5H22.9016V22.625C22.9016 21.4625 22.8781 19.9672 21.2844 19.9672C19.6625 19.9672 19.4141 21.2328 19.4141 22.5406V27.5H16.3016V17.4781H19.2875V18.8469H19.3297C19.7469 18.0594 20.7641 17.2297 22.2781 17.2297C25.4281 17.2297 26.0141 19.3062 26.0141 22.0062V27.5Z" fill="#E6F1EC"/>
</svg>
