<svg width="24" height="24" viewBox="0 0 24 24" fill="none" xmlns="http://www.w3.org/2000/svg">
<g clip-path="url(#clip0_566_1014)">
<path d="M23.1286 1.15314L18.2536 0.0281436C17.7239 -0.0937314 17.1802 0.182831 16.9646 0.679706L14.7146 5.92971C14.5177 6.38908 14.6489 6.92814 15.038 7.24221L17.8786 9.56721C16.1911 13.1625 13.2427 16.1531 9.57236 17.8735L7.24736 15.0328C6.92861 14.6438 6.39424 14.5125 5.93486 14.7094L0.684863 16.9594C0.183301 17.1797 -0.0932618 17.7235 0.0286132 18.2531L1.15361 23.1281C1.2708 23.6344 1.7208 24 2.25049 24C14.2552 24 24.0005 14.2735 24.0005 2.25002C24.0005 1.72502 23.6395 1.27033 23.1286 1.15314Z" fill="#A09F9F"/>
</g>
<defs>
<clipPath id="clip0_566_1014">
<rect width="24" height="24" fill="white"/>
</clipPath>
</defs>
</svg>
