<svg width="30" height="24" viewBox="0 0 30 24" fill="none" xmlns="http://www.w3.org/2000/svg">
<g clip-path="url(#clip0_566_1017)">
<path d="M29.25 19.5H17.8847C17.85 20.4286 17.1952 21 16.35 21H13.5C12.6239 21 11.9522 20.1811 11.9639 19.5H0.75C0.3375 19.5 0 19.8375 0 20.25V21C0 22.65 1.35 24 3 24H27C28.65 24 30 22.65 30 21V20.25C30 19.8375 29.6625 19.5 29.25 19.5ZM27 2.25C27 1.0125 25.9875 0 24.75 0H5.25C4.0125 0 3 1.0125 3 2.25V18H27V2.25ZM24 15H6V3H24V15Z" fill="#A09F9F"/>
</g>
<defs>
<clipPath id="clip0_566_1017">
<rect width="30" height="24" fill="white"/>
</clipPath>
</defs>
</svg>
